<svg width="12" height="12" viewBox="0 0 12 12" xmlns="http://www.w3.org/2000/svg"><title>Group 32</title><g fill="#FFF" fill-rule="evenodd"><path d="M.121.545v8.546h1.091V0H.122z"/><path d="M1.073 1.222L5.006 3.68l.463.29.578-.926-.463-.289L1.65.297l-.463-.29L.61.934zM.619 9.35l4.355 2.168.488.243.486-.976-.488-.243-4.355-2.169-.488-.243-.486.976z"/><path d="M10.33.292L6.38 2.77l-.462.29.58.924.462-.29 3.95-2.476.462-.29-.58-.924zm.57 8.071l-4.352 2.17-.488.243.487.976.488-.243 4.351-2.17.488-.243-.487-.977z"/><path d="M10.788.545v8.546h1.09V0h-1.09zM5.455 3.212v8.546h1.09V2.667h-1.09z"/></g></svg>