<svg width="41" height="41" viewBox="0 0 41 41" xmlns="http://www.w3.org/2000/svg"><title>Group 5</title><path d="M28.222 11.62a1.284 1.284 0 0 0-1.75.462l-8.194 14.196-4.584-4.228a1.283 1.283 0 0 0-1.812-.05 1.275 1.275 0 0 0-.059 1.806l5.858 5.406a1.281 1.281 0 0 0 1.81.052c.157-.141 9.2-15.9 9.2-15.9a1.273 1.273 0 0 0-.469-1.743zM20.5 38.439c-9.907 0-17.938-8.034-17.938-17.938 0-9.904 8.031-17.938 17.938-17.938 9.907 0 17.938 8.034 17.938 17.938 0 9.904-8.031 17.938-17.938 17.938zM20.5 0C9.179 0 0 9.174 0 20.5S9.179 41 20.5 41 41 31.826 41 20.5 31.821 0 20.5 0z" fill="#9AAB21" fill-rule="evenodd"/></svg>