<svg width="15" height="17" viewBox="0 0 15 17" xmlns="http://www.w3.org/2000/svg"><title>Shopify</title><path d="M11.017 2.477l.6.593 1.372.102a.165.165 0 0 1 .149.138L15 15.864l-4.54.978.557-14.365zm-.697-.472a.572.572 0 0 0-.086.017c-.01.004-.198.062-.51.157C9.42 1.307 8.885.505 7.94.505a1.05 1.05 0 0 0-.08.003C7.59.154 7.258 0 6.97 0 4.772 0 3.72 2.741 3.39 4.134a883.2 883.2 0 0 0-1.54.476c-.477.149-.492.164-.554.612C1.248 5.562 0 15.184 0 15.184L9.728 17l.01-.002.582-14.993zm-2.532.677v.095l-1.701.525c.327-1.26.94-1.868 1.477-2.097.135.338.224.823.224 1.477zM6.91.588a.5.5 0 0 1 .283.095c-.706.33-1.46 1.164-1.78 2.826l-1.344.415C4.443 2.656 5.33.588 6.91.588zm.38 7.414s-.57-.303-1.268-.303c-1.023 0-1.075.64-1.075.801 0 .88 2.302 1.218 2.302 3.279 0 1.621-1.032 2.666-2.424 2.666-1.67 0-2.524-1.036-2.524-1.036l.447-1.472s.878.75 1.619.75a.65.65 0 0 0 .68-.656c0-1.148-1.888-1.2-1.888-3.086 0-1.588 1.143-3.124 3.452-3.124.889 0 1.329.254 1.329.254l-.65 1.927zm1.074-5.403v-.177c0-.542-.075-.979-.196-1.324.486.06.81.612 1.019 1.247-.244.075-.522.16-.823.254z" fill="#FFF" fill-rule="evenodd"/></svg>