<svg width="208" height="209" viewBox="0 0 208 209" xmlns="http://www.w3.org/2000/svg" xmlns:xlink="http://www.w3.org/1999/xlink"><title>Group 39</title><defs><filter x="-50%" y="-50%" width="200%" height="200%" filterUnits="objectBoundingBox" id="a"><feOffset dy="2" in="SourceAlpha" result="shadowOffsetOuter1"/><feGaussianBlur stdDeviation="10" in="shadowOffsetOuter1" result="shadowBlurOuter1"/><feColorMatrix values="0 0 0 0 0 0 0 0 0 0 0 0 0 0 0 0 0 0 0.1 0" in="shadowBlurOuter1" result="shadowMatrixOuter1"/><feMerge><feMergeNode in="shadowMatrixOuter1"/><feMergeNode in="SourceGraphic"/></feMerge></filter><circle id="b" cx="18.417" cy="18.417" r="18.417"/><ellipse id="d" cx="18.417" cy="18.417" rx="18.417" ry="18.417"/><circle id="f" cx="18.417" cy="18.417" r="18.417"/></defs><g filter="url(#a)" transform="translate(19 18)" fill="none" fill-rule="evenodd"><path d="M164.784 0C167.113 0 169 1.881 169 4.174v30.652c0 2.305-1.877 4.174-4.216 4.174H55.251c-2.328 0-4.216-1.881-4.216-4.174V6.446L43.556 0h121.228zm-3.556 130c2.329 0 4.216 1.881 4.216 4.174v30.652c0 2.305-1.877 4.174-4.216 4.174H51.695c-2.328 0-4.216-1.881-4.216-4.174v-28.38L40 130h121.228z" fill="#FFF"/><g transform="translate(0 1.417)"><mask id="c" fill="#fff"><use xlink:href="#b"/></mask><use fill="#3BA1B5" opacity=".75" xlink:href="#b"/><path fill="#CF6930" mask="url(#c)" d="M5.667 26.917h25.5v9.917h-25.5z"/></g><path fill="#EDBB8E" d="M15.583 26.917h5.667v4.25h-5.667z"/><path d="M9.917 10.496c0-1.102.766-2.47 1.718-2.996 0 0 2.627-1.953 6.782-1.953 4.154 0 6.78 1.953 6.78 1.953.95.552 1.72 1.893 1.72 2.996v9.939c0 1.102-.89 1.996-2 1.996h-13c-1.105 0-2-.893-2-1.996v-9.94z" fill="#9A5B1F"/><path d="M11.333 11.923c0-1.108.887-2.006 2-2.006H23.5c1.105 0 2 .891 2 2.006v11.335c0 1.108-.813 2.358-1.843 2.804l-4.314 1.87c-.512.222-1.338.223-1.852 0l-4.315-1.87c-1.018-.44-1.843-1.69-1.843-2.804V11.923z" fill="#EDBB8E"/><circle fill="#EDBB8E" cx="25.5" cy="18.417" r="1.417"/><ellipse fill="#EDBB8E" cx="11.333" cy="18.417" rx="1.417" ry="1.417"/><path d="M11.153 13.64s.358-2.162 3.022-2.297c2.663-.135 3.712 1.883 8.65 1.883 4.94 0 2.257-4.726 2.257-4.726h-3.847l-8.614.096s-1.006.147-1.269.556c-.226.353-.199 1.73-.199 1.73v2.758z" fill="#9A5B1F"/><g transform="translate(0 131.75)"><mask id="e" fill="#fff"><use xlink:href="#d"/></mask><use fill="#3BA1B5" opacity=".75" xlink:href="#d"/><path fill="#CF6930" mask="url(#e)" d="M5.667 26.917h25.5v9.917h-25.5z"/></g><path fill="#EDBB8E" d="M15.583 157.25h5.667v4.25h-5.667z"/><path d="M9.917 140.83c0-1.103.79-2.419 1.78-2.894 0 0 2.728-1.73 6.72-1.73 3.992 0 6.72 1.73 6.72 1.73.983.496 1.78 1.79 1.78 2.893v9.939c0 1.102-.89 1.996-2 1.996h-13c-1.105 0-2-.893-2-1.996v-9.939z" fill="#9A5B1F"/><path d="M11.333 142.256c0-1.108.887-2.006 2-2.006H23.5c1.105 0 2 .891 2 2.006v11.335c0 1.108-.813 2.358-1.843 2.805l-4.314 1.87c-.512.221-1.338.222-1.852 0l-4.315-1.87c-1.018-.441-1.843-1.69-1.843-2.805v-11.335z" fill="#EDBB8E"/><ellipse fill="#EDBB8E" cx="25.5" cy="148.75" rx="1.417" ry="1.417"/><ellipse fill="#EDBB8E" cx="11.333" cy="148.75" rx="1.417" ry="1.417"/><path d="M11.153 143.973s.358-2.161 3.022-2.296c2.663-.135 3.712 1.882 8.65 1.882 4.94 0 2.257-4.726 2.257-4.726h-3.847l-8.614.097s-1.006.146-1.269.556c-.226.352-.199 1.73-.199 1.73v2.757z" fill="#9A5B1F"/><path fill="#EAEAEA" d="M61 17h96v3H61z"/><path fill="#898F95" d="M61 5h26v2H61z"/><path fill="#EAEAEA" d="M61 31h26v3H61z"/><path fill="#4D4F52" d="M61 11.07h14v2H61z"/><path fill="#EAEAEA" d="M61 21.931h76v3H61zM61 147h76v3H61z"/><path fill="#898F95" d="M61 135h26v2H61z"/><path fill="#EAEAEA" d="M61 161h26v3H61z"/><path fill="#4D4F52" d="M61 141h14v2H61z"/><path fill="#EAEAEA" d="M61 152h76v3H61z"/><path d="M9.216 65C6.887 65 5 66.881 5 69.174v30.652C5 102.131 6.877 104 9.216 104h109.533c2.328 0 4.216-1.881 4.216-4.174v-28.38L130.444 65H9.216z" fill="#FFF"/><g transform="translate(133 65)"><g transform="translate(.167 .583)"><mask id="g" fill="#fff"><use xlink:href="#f"/></mask><use fill="#B5C63E" opacity=".75" xlink:href="#f"/><path fill="#3BA1B5" mask="url(#g)" d="M5.667 26.917h25.5v9.917h-25.5z"/></g><path fill="#B6885D" d="M15.75 26.083h5.667v4.25H15.75z"/><path d="M10.083 9.663c0-1.103.804-2.386 1.826-2.82 0 0 2.391-1.44 6.674-1.44 4.284 0 6.69 1.446 6.69 1.446 1 .452 1.81 1.71 1.81 2.814V19.6c0 1.103-.89 1.996-2 1.996h-13c-1.104 0-2-.892-2-1.996V9.663z" fill="#4E4A45"/><path d="M11.5 11.09c0-1.108.886-2.007 2-2.007h10.167a2 2 0 0 1 2 2.007v11.334c0 1.108-.813 2.359-1.843 2.805l-4.315 1.87c-.511.221-1.337.223-1.852 0l-4.314-1.87c-1.018-.441-1.843-1.69-1.843-2.805V11.09z" fill="#B6885D"/><ellipse fill="#B6885D" cx="25.667" cy="17.583" rx="1.417" ry="1.417"/><ellipse fill="#B6885D" cx="11.5" cy="17.583" rx="1.417" ry="1.417"/><path d="M11.32 12.806s.358-2.16 3.022-2.296c2.663-.135 3.712 1.882 8.65 1.882 4.939 0 2.257-4.725 2.257-4.725h-3.847l-8.614.096s-1.006.147-1.27.556c-.225.353-.198 1.73-.198 1.73v2.757z" fill="#4E4A45"/></g><path fill="#EAEAEA" d="M108 82.083H52v3h56z"/><path fill="#898F95" d="M108 70.083H82v2h26z"/><path fill="#EAEAEA" d="M108 96.083H82v3h26z"/><path fill="#4D4F52" d="M108 76H94v2h14z"/><path fill="#EAEAEA" d="M108 87.083H32v3h76z"/></g></svg>