<svg width="207" height="208" viewBox="0 0 207 208" xmlns="http://www.w3.org/2000/svg"><title>Group 11</title><defs><filter x="-50%" y="-50%" width="200%" height="200%" filterUnits="objectBoundingBox" id="a"><feOffset dy="2" in="SourceAlpha" result="shadowOffsetOuter1"/><feGaussianBlur stdDeviation="10" in="shadowOffsetOuter1" result="shadowBlurOuter1"/><feColorMatrix values="0 0 0 0 0 0 0 0 0 0 0 0 0 0 0 0 0 0 0.1 0" in="shadowBlurOuter1" result="shadowMatrixOuter1"/><feMerge><feMergeNode in="shadowMatrixOuter1"/><feMergeNode in="SourceGraphic"/></feMerge></filter></defs><g filter="url(#a)" transform="translate(20 18)" fill="none" fill-rule="evenodd"><path d="M55.5 111c30.652 0 55.5-24.848 55.5-55.5S86.152 0 55.5 0 0 24.848 0 55.5 24.848 111 55.5 111zm0-12C79.524 99 99 79.524 99 55.5S79.524 12 55.5 12 12 31.476 12 55.5 31.476 99 55.5 99z" fill="#62676B"/><path d="M55.5 87C72.897 87 87 72.897 87 55.5S72.897 24 55.5 24 24 38.103 24 55.5 38.103 87 55.5 87zm0-12C66.27 75 75 66.27 75 55.5S66.27 36 55.5 36 36 44.73 36 55.5 44.73 75 55.5 75z" fill="#4D4F52"/><circle fill="#3C3E40" cx="55.5" cy="55.5" r="7.5"/><path d="M98.44 98.44l19.062 19.062" stroke="#E8E8E8" stroke-width="2" stroke-linecap="square" stroke-dasharray="4"/><g transform="rotate(-45 212.403 -75.252)"><path fill="#4D4F52" d="M8 35h2v15H8z"/><path fill="#CF6930" d="M1.922 49.948L6 43h6l4.085 6.948L18 60 8 57l-8 3z"/><path fill="#AF531F" d="M13.078 49.948L10 43H9v14l6 3z"/><path fill="#4D4F52" d="M8.5 0h1v17h-1z"/><rect fill="#CF6930" x="7" y="9" width="4" height="29" rx="2"/></g><path fill="#FED915" d="M141.5 50.25l-11.462 6.026 2.19-12.763-9.274-9.039 12.815-1.862L141.5 21l5.73 11.612 12.816 1.862-9.273 9.039 2.189 12.763zm-116.612 90.5l-7.347 3.863 1.403-8.182L13 130.637l8.215-1.193L24.888 122l3.674 7.444 8.214 1.193-5.944 5.794 1.404 8.182z"/></g></svg>