<svg width="199" height="209" viewBox="0 0 199 209" xmlns="http://www.w3.org/2000/svg" xmlns:xlink="http://www.w3.org/1999/xlink"><title>Group 17 Copy</title><defs><filter x="-50%" y="-50%" width="200%" height="200%" filterUnits="objectBoundingBox" id="a"><feOffset dy="2" in="SourceAlpha" result="shadowOffsetOuter1"/><feGaussianBlur stdDeviation="10" in="shadowOffsetOuter1" result="shadowBlurOuter1"/><feColorMatrix values="0 0 0 0 0 0 0 0 0 0 0 0 0 0 0 0 0 0 0.1 0" in="shadowBlurOuter1" result="shadowMatrixOuter1"/><feMerge><feMergeNode in="shadowMatrixOuter1"/><feMergeNode in="SourceGraphic"/></feMerge></filter><rect id="b" width="68" height="12" rx="3"/><path d="M0 0h68l-4.553 100a3.168 3.168 0 0 1-3.144 3H8.87c-1.661 0-3.084-1.34-3.179-3L0 0z" id="d"/></defs><g filter="url(#a)" transform="translate(19 17)" fill="none" fill-rule="evenodd"><g transform="translate(63)"><rect fill="#FFF" y="13" width="97" height="122" rx="3"/><path fill="#4D4F52" d="M10 35h20v2H10z"/><path fill="#EAEAEA" d="M10 39h68.594v2H10zm0 4h52.875v2H10zm0 4h28.594v2H10z"/><path fill="#4D4F52" d="M10 73.5h20v2H10z"/><path fill="#EAEAEA" d="M10 77.5h48.594v2H10zm0 4h63.765v2H10zm0 4h68.594v2H10z"/><path fill="#4D4F52" d="M10 112h20v2H10z"/><path fill="#EAEAEA" d="M10 116h68.594v2H10zm0 4h62.875v2H10zm0 4h52.594v2H10z"/><rect fill="#62676B" y="13" width="97" height="13" rx="3"/><path d="M55.984 7a7.5 7.5 0 0 0-14.968 0h-10.51C26.919 7 24 9.91 24 13.5c0 3.583 2.913 6.5 6.507 6.5h35.986C70.082 20 73 17.09 73 13.5 73 9.917 70.087 7 66.493 7h-10.51zM48.5 12a4.5 4.5 0 1 0 0-9 4.5 4.5 0 0 0 0 9z" fill="#4D4F52"/></g><g transform="translate(10 45)"><mask id="c" fill="#fff"><use xlink:href="#b"/></mask><use fill="#62676B" xlink:href="#b"/><rect fill="#505457" mask="url(#c)" x="-12" y="7" width="91" height="12" rx="3"/></g><path fill="#62676B" d="M57 37h21v11H57z"/><rect fill="#62676B" y="56" width="86" height="11" rx="3"/><g transform="translate(10 67)"><mask id="e" fill="#fff"><use xlink:href="#d"/></mask><use fill="#E8E8E8" xlink:href="#d"/><path d="M66 62.948V106H-1V25.902A15.445 15.445 0 0 0 9.5 30c4.51 0 8.57-1.926 11.402-5h.206c2.749-2.486 6.394-4 10.392-4 3.998 0 7.643 1.514 10.392 4H42a9.956 9.956 0 0 0 6 2 9.955 9.955 0 0 0 4.895-1.278A21.424 21.424 0 0 1 67.5 20C79.374 20 89 29.626 89 41.5S79.374 63 67.5 63c-.504 0-1.004-.017-1.5-.052z" fill="#B3C62A" mask="url(#e)"/><path fill="#62676B" opacity=".85" mask="url(#e)" d="M0 15h31v2H0zm0 19h31v2H0zm0 19h31v2H0zm0 19h31v2H0zm0-47h18v2H0zm0 19h18v2H0zm0 19h18v2H0zm0 19h18v2H0z"/></g></g></svg>