<svg width="210" height="177" viewBox="0 0 210 177" xmlns="http://www.w3.org/2000/svg" xmlns:xlink="http://www.w3.org/1999/xlink"><title>Group 7</title><defs><filter x="-50%" y="-50%" width="200%" height="200%" filterUnits="objectBoundingBox" id="c"><feOffset dy="2" in="SourceAlpha" result="shadowOffsetOuter1"/><feGaussianBlur stdDeviation="10" in="shadowOffsetOuter1" result="shadowBlurOuter1"/><feColorMatrix values="0 0 0 0 0 0 0 0 0 0 0 0 0 0 0 0 0 0 0.1 0" in="shadowBlurOuter1" result="shadowMatrixOuter1"/><feMerge><feMergeNode in="shadowMatrixOuter1"/><feMergeNode in="SourceGraphic"/></feMerge></filter><path id="a" d="M0 68h76v2H0z"/><mask id="d" x="0" y="0" width="76" height="2" fill="#fff"><use xlink:href="#a"/></mask><path id="b" d="M-33.5 33.5h69v2h-69z"/><mask id="e" x="0" y="0" width="69" height="2" fill="#fff"><use xlink:href="#b"/></mask></defs><g filter="url(#c)" transform="translate(20 18)" fill="none" fill-rule="evenodd"><rect fill="#FFF" width="170" height="137.143" rx="3"/><path d="M0 3.009A3.006 3.006 0 0 1 3.005 0h163.99A3.006 3.006 0 0 1 170 3.009V21H0V3.009z" fill="#4D4F52"/><ellipse fill="#F99" cx="11.5" cy="10.5" rx="3.5" ry="3.5"/><ellipse fill="#F1D622" cx="24.5" cy="10.5" rx="3.5" ry="3.5"/><ellipse fill="#AACB17" cx="37.5" cy="10.5" rx="3.5" ry="3.5"/><path fill="#898F95" d="M37 35h40v3H37zm68 9h49v3h-49z"/><path fill="#EAEAEA" d="M105 58h45v3h-45z"/><path fill="#4D4F52" d="M105 50h14v2h-14z"/><path fill="#EAEAEA" d="M105 67h49v3h-49zm0 27h49v3h-49zm0-18h32v3h-32zm0 9h22v3h-22z"/><path fill="#3BA1B5" d="M105 104h27v10h-27z"/><g transform="translate(19 44)"><path fill="#CF6930" d="M24 44h12v22H24zM4 58h12v8H4zm40-34h12v42H44zM64 6h12v60H64z"/><use stroke="#3BA1B5" mask="url(#d)" stroke-width="2" fill="#D8D8D8" xlink:href="#a"/><use stroke="#3BA1B5" mask="url(#e)" stroke-width="2" fill="#D8D8D8" transform="rotate(-90 1 34.5)" xlink:href="#b"/></g></g></svg>