<svg width="159" height="200" viewBox="0 0 159 200" xmlns="http://www.w3.org/2000/svg" xmlns:xlink="http://www.w3.org/1999/xlink"><title>Group 22</title><defs><filter x="-50%" y="-50%" width="200%" height="200%" filterUnits="objectBoundingBox" id="b"><feOffset dy="2" in="SourceAlpha" result="shadowOffsetOuter1"/><feGaussianBlur stdDeviation="10" in="shadowOffsetOuter1" result="shadowBlurOuter1"/><feColorMatrix values="0 0 0 0 0 0 0 0 0 0 0 0 0 0 0 0 0 0 0.1 0" in="shadowBlurOuter1" result="shadowMatrixOuter1"/><feMerge><feMergeNode in="shadowMatrixOuter1"/><feMergeNode in="SourceGraphic"/></feMerge></filter><path d="M74.08 29.253C73.864 2.414 51.283.213 37.064.213 22.844.213.048 12.973.048 30.503c0 7.834 7.019 13.754 11.732 19.29h48.507c6.158 0 13.577-1.708 13.793-20.54z" id="c"/><ellipse id="e" cx="7" cy="7" rx="7" ry="7"/><path d="M3.772 0A7.541 7.541 0 0 0 0 6.535a7.541 7.541 0 0 0 3.772 6.535 7.541 7.541 0 0 0 3.772-6.535A7.541 7.541 0 0 0 3.772 0z" id="g"/><path id="a" d="M25 12h14v14H25z"/><mask id="i" x="0" y="0" width="14" height="14" fill="#fff"><use xlink:href="#a"/></mask></defs><g filter="url(#b)" transform="translate(17 18)" fill="none" fill-rule="evenodd"><path d="M15.464 153.997a3.001 3.001 0 0 1 3-2.997H116a3.003 3.003 0 0 1 3.001 2.997v3.006a3.001 3.001 0 0 1-3 2.997H18.464a3.002 3.002 0 0 1-3.001-2.997v-3.006z" fill="#62676B"/><path d="M48.318 102.493a9.968 9.968 0 0 0 .001 9.974 9.968 9.968 0 0 0 8.637 4.988 9.968 9.968 0 0 0 0-9.974 9.968 9.968 0 0 0-8.638-4.988z" fill="#AACE09"/><path d="M6.936 93.124a4.984 4.984 0 0 1 4.248-5.625 4.984 4.984 0 0 1 5.634 4.236 4.972 4.972 0 0 1-1.641 4.428c.124.1.243.206.356.321l3.033 5.602c1.441 1.472 2.686 2.605 1.059 3.874l-2.526 1.97c-1.625 1.266-2.424-.205-3.51-1.963l-4.712-4.292a3.884 3.884 0 0 1-.333-.681 4.352 4.352 0 0 1-2.249 1.02 4.361 4.361 0 0 1-4.93-3.708 4.361 4.361 0 0 1 3.718-4.922 4.356 4.356 0 0 1 1.93.161 5.034 5.034 0 0 1-.077-.421z" fill="#DDD"/><g transform="translate(39.93 101.494)"><mask id="d" fill="#fff"><use xlink:href="#c"/></mask><use fill="#ED7F0E" xlink:href="#c"/><path d="M34.82 34.603c.011-.271.017-.544.017-.818 0-19.92-24.687-13.83-48.22-33.31-1.853-.913-4.537-.469-5.998.99-1.459 1.455-1.781 4.074-.714 5.842 0 0 12.74 43.458 27.672 43.283h18.345c5.115-3.009 8.616-9.702 8.897-15.987z" fill="#CF6930" mask="url(#d)"/></g><path d="M62.668 112.602a13.4 13.4 0 0 0-13.408.001 13.4 13.4 0 0 0-6.705 11.612 13.4 13.4 0 0 0 13.408-.002 13.4 13.4 0 0 0 6.705-11.611z" fill="#AACE09"/><path d="M69.085 136.544a18.5 18.5 0 0 0 .018-.818c0-19.92-24.688-13.83-48.22-33.311-1.853-.913-4.537-.468-5.998.99-1.459 1.456-1.781 4.074-.714 5.843 0 0 12.74 42.212 27.672 42.038h18.345c5.115-3.009 8.616-8.458 8.897-14.742z" fill="#EC8110"/><path d="M90.51 88.423a3.738 3.738 0 0 0-3.967 2.751l-1.368 5.109-2.014 7.514a.63.63 0 0 0 .441.763.629.629 0 0 0 .764-.44l1.772-6.613 1.205.323-1.772 6.613a.63.63 0 0 0 .441.763.629.629 0 0 0 .764-.44l1.772-6.613 1.205.323-1.772 6.612a.63.63 0 0 0 .441.763.629.629 0 0 0 .764-.44l1.772-6.613 1.205.323-1.772 6.613a.63.63 0 0 0 .441.763.629.629 0 0 0 .764-.44l2.013-7.514 1.369-5.109a3.745 3.745 0 0 0-2.06-4.365l7.102-26.5a1.245 1.245 0 0 0-.882-1.53 1.25 1.25 0 0 0-1.528.884l-7.1 26.5z" fill="#62676B"/><path d="M88.272 120.52c7.578 0 9.523-1.15 9.523-8.712 0-7.563-6.08-8.722-13.362-8.074-7.283.647-23.363 5.519-11.802 10.658 11.56 5.14 8.063 6.128 15.64 6.128z" fill="#ED7F0E"/><path d="M50.465 137.805a13.4 13.4 0 0 0-13.408.001 13.4 13.4 0 0 0-6.705 11.612 13.4 13.4 0 0 0 13.408-.002 13.4 13.4 0 0 0 6.705-11.611z" fill="#AACE09"/><g transform="translate(24 138)"><mask id="f" fill="#fff"><use xlink:href="#e"/></mask><use fill="#9AAB21" xlink:href="#e"/><ellipse fill="#768A00" mask="url(#f)" cx="5.868" cy="8.868" rx="3.868" ry="3.868"/></g><g transform="translate(36 144)"><ellipse fill="#9AAB21" cx="4.192" cy="4.192" rx="4.192" ry="4.192"/><ellipse fill="#778808" cx="5.293" cy="5.293" rx="2.293" ry="2.293"/></g><g transform="translate(107 143)"><ellipse fill="#9AAB21" cx="4.657" cy="4.657" rx="4.657" ry="4.657"/><ellipse fill="#778808" cx="5.882" cy="5.882" rx="2.548" ry="2.548"/></g><path d="M97.71 151.048c.55.954 3.8 1.018 5.629 1.508a5.827 5.827 0 1 0-4.12-7.136c-.343 1.278-2.057 4.674-1.508 5.628z" fill="#8E57E2"/><g transform="rotate(10 -699.913 687.695)"><mask id="h" fill="#fff"><use xlink:href="#g"/></mask><use fill="#AACE09" xlink:href="#g"/><path d="M6.234 6.62a5.51 5.51 0 0 0-2.756 4.776 5.51 5.51 0 0 0 2.756 4.775 5.51 5.51 0 0 0 2.756-4.775A5.51 5.51 0 0 0 6.234 6.62z" fill="#9AAB21" mask="url(#h)" transform="rotate(75 6.234 11.396)"/></g><path d="M117.653 144.835a5.155 5.155 0 0 0-4.467-2.579 5.155 5.155 0 0 0-4.468 2.579 5.155 5.155 0 0 0 4.468 2.579 5.155 5.155 0 0 0 4.467-2.579z" fill="#AACE09"/><path d="M69 95.5V41.99" stroke="#E8E8E8" stroke-width="2" stroke-linecap="square" stroke-dasharray="4"/><path d="M118.998 38A3.004 3.004 0 0 0 122 35.006V2.994A2.998 2.998 0 0 0 118.998 0H18.002A3.004 3.004 0 0 0 15 2.994V43l5-5h98.998z" fill="#FFF"/><use stroke="#62676B" mask="url(#i)" stroke-width="4" xlink:href="#a"/><path d="M28.707 17.621l4.243 4.243m0 0l9.9-9.9" stroke="#9AAB21" stroke-width="2" stroke-linecap="square"/><path fill="#4D4F52" d="M49 13h14v2H49z"/><path fill="#EAEAEA" d="M49 18h64v3H49z"/><path fill="#898F95" d="M49 7h31v2H49z"/><path fill="#EAEAEA" d="M49 23h54v3H49zm0 5h44v3H49z"/></g></svg>