<svg width="209" height="205" viewBox="0 0 209 205" xmlns="http://www.w3.org/2000/svg" xmlns:xlink="http://www.w3.org/1999/xlink"><title>Group 8</title><defs><filter x="-50%" y="-50%" width="200%" height="200%" filterUnits="objectBoundingBox" id="d"><feOffset dy="2" in="SourceAlpha" result="shadowOffsetOuter1"/><feGaussianBlur stdDeviation="10" in="shadowOffsetOuter1" result="shadowBlurOuter1"/><feColorMatrix values="0 0 0 0 0 0 0 0 0 0 0 0 0 0 0 0 0 0 0.1 0" in="shadowBlurOuter1" result="shadowMatrixOuter1"/><feMerge><feMergeNode in="shadowMatrixOuter1"/><feMergeNode in="SourceGraphic"/></feMerge></filter><path id="a" d="M0 0h14v14H0z"/><mask id="e" x="0" y="0" width="14" height="14" fill="#fff"><use xlink:href="#a"/></mask><path id="b" d="M0 0h14v14H0z"/><mask id="f" x="0" y="0" width="14" height="14" fill="#fff"><use xlink:href="#b"/></mask><path id="c" d="M0 .136h14v14H0z"/><mask id="g" x="0" y="0" width="14" height="14" fill="#fff"><use xlink:href="#c"/></mask><path d="M11.767 4.756c-2.114 4.575-9.288 20.536-9.92 27.75-2.176 24.858-.114 68.35-.114 68.35.061 1.451 1.297 2.636 2.755 2.636h34.976c1.458 0 2.696-1.174 2.764-2.622 0 0 2.16-42.278-.123-68.364-.54-6.173-7.79-22.892-9.919-27.693a2.612 2.612 0 0 1-.347-1.305c0-1.4 1.097-2.544 2.481-2.626V0H9.68v.888a2.635 2.635 0 0 1 2.252 3.497h.006l-.034.074c-.04.102-.086.201-.137.297z" id="h"/><rect id="i" width="130" height="12" rx="3"/></defs><g filter="url(#d)" transform="translate(20 18)" fill="none" fill-rule="evenodd"><rect fill="#FFF" width="97" height="122" rx="3"/><g transform="translate(8 98.272)"><path fill="#4D4F52" d="M22 0h20v2H22z"/><path fill="#EAEAEA" d="M22 4h50v2H22zm0 4h40v2H22zm0 4h50v2H22z"/><use stroke="#62676B" mask="url(#e)" stroke-width="4" xlink:href="#a"/></g><rect fill="#4D4F52" width="97" height="13" rx="3"/><g transform="translate(8 23)"><path fill="#4D4F52" d="M22 0h20v2H22z"/><path fill="#EAEAEA" d="M22 4h50v2H22zm0 4h40v2H22zm0 4h50v2H22z"/><use stroke="#62676B" mask="url(#f)" stroke-width="4" xlink:href="#b"/></g><path d="M11.707 27.9l4.243 4.242m0 0l9.9-9.9" stroke="#9AAB21" stroke-width="2" stroke-linecap="square"/><g transform="translate(8 60.136)"><path fill="#4D4F52" d="M22 .136h20v2H22z"/><path fill="#EAEAEA" d="M22 4.136h50.483v2H22zm0 4h40.958v2H22zm0 4h50.483v2H22z"/><use stroke="#62676B" mask="url(#g)" stroke-width="4" xlink:href="#c"/></g><path d="M11.707 65.036l4.243 4.242m0 0l9.9-9.9" stroke="#9AAB21" stroke-width="2" stroke-linecap="square"/><g transform="translate(106 46)"><use fill="#FCFCFC" xlink:href="#h" transform="translate(0 3.508)"/><rect fill="#CF6930" x="7.04" width="29.92" height="4.385" rx="2.193"/></g><path d="M160 102H50l5.715 60.004C55.872 163.659 57.348 165 59 165h92c1.657 0 3.128-1.345 3.285-2.996L160 102zm-90.5 26a7.5 7.5 0 1 1 0-15 7.5 7.5 0 0 1 0 15zm0 26a7.5 7.5 0 1 1 0-15 7.5 7.5 0 0 1 0 15zm35.667-26a7.5 7.5 0 1 1 0-15 7.5 7.5 0 0 1 0 15zm.333 26a7.5 7.5 0 1 1 0-15 7.5 7.5 0 0 1 0 15zm35.333-26a7.5 7.5 0 1 1 0-15 7.5 7.5 0 0 1 0 15zm-.333 26a7.5 7.5 0 1 1 0-15 7.5 7.5 0 0 1 0 15z" fill="#4D4F52"/><g transform="matrix(-1 0 0 1 170 91)"><mask id="j" fill="#fff"><use xlink:href="#i"/></mask><use fill="#9AAB21" xlink:href="#i"/><path d="M51.133-19.449c0-1.656 1.336-2.902 3.001-2.783l53.287 3.813c1.658.118 3.001 1.556 3.001 3.212v6.005a3.003 3.003 0 0 1-3 2.998H54.133a3 3 0 0 1-3-2.998V-19.45z" fill="#818F17" mask="url(#j)" transform="rotate(-45 80.778 -14.222)"/></g><path d="M110.88 94.043a3.003 3.003 0 0 0-.002-4.241l-37.68-37.68a2.999 2.999 0 0 0-4.241-.003l-4.247 4.247a3.003 3.003 0 0 0 .003 4.241l37.68 37.68a2.999 2.999 0 0 0 4.241.003l4.247-4.247z" fill="#9AAB21"/></g></svg>